<svg width="2402" height="546" viewBox="0 0 2402 546" fill="none" xmlns="http://www.w3.org/2000/svg">
<path fill-rule="evenodd" clip-rule="evenodd" d="M187.664 545.306C78.2915 506.336 0 401.87 0 279.118C0 260.479 1.80521 242.261 5.25032 224.63L13.5068 221.471C22.6945 217.956 30.8772 212.236 37.3342 204.815L53.3605 186.395C79.199 156.698 126.152 159.508 148.265 192.074L231.014 313.946C242.957 331.536 265.58 338.37 285.265 330.333C318.005 316.967 352.665 344.844 346.628 379.689L338.955 423.974C334.757 448.207 316.194 467.424 292.121 472.46L255.854 480.046C241.757 482.995 229.191 490.917 220.451 502.364L187.664 545.306Z" fill="#32A60F"/>
<path fill-rule="evenodd" clip-rule="evenodd" d="M337.637 16.1307L351.804 25.394C363.864 33.279 372.683 45.2404 376.65 59.0919L393.527 118.017C397.688 132.546 407.18 144.97 420.105 152.805L455.498 174.261C486.142 192.837 493.776 233.956 471.844 262.293L422.403 326.173C408.646 343.947 405.977 367.918 415.486 388.282L451.12 464.597C454.664 472.185 456.5 480.458 456.5 488.833C456.5 492.908 456.925 496.883 457.734 500.717C523.079 448.974 565.001 368.942 565.001 279.118C565.001 138.01 461.544 21.0664 326.345 0C326.783 1.85176 327.432 3.69898 328.31 5.51587C330.397 9.83561 333.622 13.5052 337.637 16.1307Z" fill="#32A60F"/>
<path d="M1035.29 175.244C998.617 154.499 960.46 141.904 920.822 137.458V467.529H848.585V137.458C808.576 141.904 770.234 154.499 733.56 175.244L708.555 119.677C734.486 104.118 762.27 92.4486 791.906 84.6692C821.912 76.8897 852.66 73 884.148 73C915.636 73 946.383 76.8897 976.39 84.6692C1006.4 92.4486 1034.37 104.118 1060.3 119.677L1035.29 175.244Z" fill="white"/>
<path d="M1096.09 193.799L1165.55 170.799V467.529H1096.09V193.799Z" fill="white"/>
<path d="M1534.56 170.799L1407.31 467.529H1335.62L1208.38 170.799H1280.61L1372.85 390.846L1467.87 170.799H1534.56Z" fill="white"/>
<path d="M1710.97 412.517C1743.2 412.517 1770.06 401.774 1791.54 380.288L1828.22 423.075C1815.25 439.004 1798.58 451.044 1778.21 459.194C1757.83 467.344 1734.86 471.419 1709.3 471.419C1676.7 471.419 1647.99 464.936 1623.17 451.97C1598.35 439.004 1579.09 421.037 1565.38 398.07C1552.05 374.731 1545.38 348.429 1545.38 319.164C1545.38 290.269 1551.86 264.337 1564.83 241.369C1578.16 218.031 1596.32 199.879 1619.28 186.913C1642.62 173.948 1668.92 167.465 1698.19 167.465C1725.97 167.465 1751.16 173.577 1773.76 185.802C1796.73 197.656 1814.88 214.882 1828.22 237.48C1841.55 259.707 1848.22 285.823 1848.22 315.83L1620.95 360.284C1627.99 377.324 1639.29 390.29 1654.85 399.181C1670.41 408.072 1689.11 412.517 1710.97 412.517ZM1698.19 223.032C1672.63 223.032 1651.88 231.367 1635.95 248.037C1620.39 264.708 1612.62 287.12 1612.62 315.274V315.83L1780.43 283.601C1775.61 265.449 1765.8 250.816 1750.98 239.702C1736.53 228.589 1718.93 223.032 1698.19 223.032Z" fill="white"/>
<path d="M2401.82 451.414C2393.67 458.082 2383.67 463.083 2371.81 466.417C2360.33 469.751 2348.11 471.419 2335.14 471.419C2302.54 471.419 2277.35 462.898 2259.57 445.858C2241.79 428.817 2232.9 403.997 2232.9 371.397V126.229L2302.35 105.229V173.021H2381.82V228.589H2302.35V369.73C2302.35 384.178 2305.87 395.291 2312.91 403.071C2320.32 410.48 2330.51 414.184 2343.47 414.184C2359.03 414.184 2372 410.109 2382.37 401.959L2401.82 451.414Z" fill="white"/>
<path d="M2089.85 470.325C2060.15 478.283 2031.82 479.164 2004.84 472.968C1977.87 466.772 1954.79 454.355 1935.61 435.717C1916.33 416.722 1902.9 393.09 1895.33 364.822C1887.75 336.553 1887.61 309.553 1894.91 283.82C1902.2 258.087 1915.8 235.843 1935.7 217.087C1955.97 198.235 1981.12 184.782 2011.18 176.728C2039.45 169.153 2065.67 168.263 2089.85 174.056C2114.39 179.754 2134.9 191.9 2151.39 210.493L2107.92 254.357C2096.14 243.323 2083.13 236.263 2068.88 233.178C2054.89 229.639 2040.56 229.835 2025.89 233.766C2000.84 240.478 1982.29 254.269 1970.24 275.139C1958.1 295.652 1955.67 319.506 1962.96 346.7C1970.24 373.895 1984.14 393.565 2004.66 405.711C2025.43 417.403 2048.52 419.845 2073.93 413.037C2088.6 409.106 2101.15 402.29 2111.59 392.59C2122.29 382.435 2129.99 369.635 2134.67 354.191L2194.25 370.441C2188.91 394.883 2177.09 415.885 2158.78 433.446C2140.74 450.553 2117.76 462.846 2089.85 470.325Z" fill="white"/>
</svg>
